<svg xmlns="http://www.w3.org/2000/svg" id="Layer_2" data-name="Layer 2" viewBox="0 0 150 23.56"><defs><style> .cls-1 { fill: #1a1a1a; stroke-width: 0px; } </style></defs><g id="Layer_1-2" data-name="Layer 1"><g><g><path class="cls-1" d="m119.59,12.69h-8.5c.03.76.74,1.69,1.57,1.99,1.3.48,2.49.18,3.58-.64.16-.12.31-.26.45-.38.7.71,1.39,1.42,2.11,2.16-.05.05-.11.13-.18.21-1.2,1.25-2.69,1.85-4.37,1.98-1.43.11-2.83-.03-4.14-.7-1.82-.94-2.8-2.49-3.09-4.53-.17-1.21-.11-2.42.29-3.59.82-2.38,2.53-3.65,4.91-4.02,1.04-.16,2.09-.12,3.11.16,2.28.61,3.54,2.21,4.05,4.5.11.49.16.99.19,1.49.03.43,0,.87,0,1.36m-8.6-2.25h4.63c.14-1.25-.81-2.35-2.05-2.4-1.39-.05-2.64,1.1-2.59,2.4"></path><path class="cls-1" d="m129.61,9.86c-.43-.62-.94-1.04-1.62-1.21-1.67-.43-3.07.63-3.21,2.42-.05.65-.05,1.29.18,1.91.35.95.98,1.59,2,1.69,1.01.09,1.87-.22,2.47-1.11.06-.09.12-.18.18-.28.05.02.09.03.13.05.94.55,1.88,1.11,2.89,1.7-.26.36-.47.73-.75,1.05-.9,1.04-2.05,1.61-3.37,1.84-1.47.26-2.93.2-4.33-.41-1.96-.87-3.07-2.44-3.41-4.57-.22-1.34-.14-2.68.36-3.97.86-2.23,2.51-3.44,4.78-3.78,1.44-.22,2.85-.07,4.18.58.93.46,1.7,1.12,2.27,2.01.06.1.12.2.19.33-.98.59-1.95,1.16-2.93,1.76"></path><path class="cls-1" d="m132.82,5.25h4.15c.84,2.88,1.68,5.76,2.53,8.65.02,0,.05.01.07.02.85-2.89,1.7-5.77,2.56-8.66h4.04c-.07.2-.13.38-.19.56-1.43,3.91-2.86,7.82-4.28,11.74-.1.26-.21.36-.5.36-1.18-.02-2.36-.01-3.55,0-.18,0-.28-.03-.35-.23-1.47-4.07-2.95-8.14-4.42-12.21-.02-.06-.04-.12-.06-.22"></path><path class="cls-1" d="m148.06,14.11c1.15,0,1.94.79,1.94,1.95,0,1.14-.83,2.01-1.93,2.01-1.09,0-1.88-.83-1.88-1.99,0-1.2.72-1.97,1.87-1.97"></path><rect class="cls-1" x="103.42" y="3.09" width=".5" height="16.72"></rect></g><g><g><g><path class="cls-1" d="m28.44,9.09l-1.11-1.13c1.01-1.31,2.56-1.97,4.66-1.97,3.28,0,5.08,1.65,5.08,4.78v6.97h-1.65v-1.6c-.49.57-1.18,1.03-2.05,1.36-.86.32-1.68.49-2.44.49-2.59,0-4.26-1.31-4.26-3.47s1.53-3.52,4.88-3.52c.99,0,2.27.25,3.87.76v-.99c0-1.95-1.33-3.15-3.6-3.15-1.31,0-2.44.49-3.38,1.48Zm4.98,6.73c.89-.37,1.55-.91,1.97-1.6v-.99c-1.38-.47-2.66-.71-3.84-.71-2.12,0-3.18.67-3.18,2,0,1.08.91,1.87,2.61,1.87.76,0,1.58-.2,2.44-.57Z"></path><path class="cls-1" d="m39.6,14.44c.35,1.33,1.26,2,2.71,2s2.44-.74,2.44-1.82c0-.91-.54-1.5-1.65-1.77l-1.6-.37c-.86-.2-1.4-.44-2.09-.96-.67-.57-.94-1.5-.81-2.78.22-1.6,1.85-2.74,3.75-2.74s3.33.99,3.62,2.98h-1.6c-.2-.86-1.01-1.4-2.02-1.4-1.11,0-2.02.59-2.14,1.4-.17.96.39,1.6,1.7,1.92l1.58.37c1.95.47,2.91,1.58,2.91,3.35,0,.99-.39,1.8-1.21,2.44-.81.62-1.8.94-3.01.94-1.03,0-1.95-.32-2.76-.96-.79-.67-1.21-1.53-1.26-2.59h1.45Z"></path><path class="cls-1" d="m50.08,17.74h-1.65V7.71h-2.07v-1.48h2.07V1.92h1.65v4.31h2.44v1.48h-2.44v10.03Z"></path><path class="cls-1" d="m54.04,16.31c-1.11-1.11-1.65-2.56-1.65-4.36s.54-3.23,1.65-4.31c1.11-1.11,2.49-1.65,4.16-1.65s3.01.54,4.07,1.63c1.06,1.08,1.58,2.54,1.58,4.34,0,.37,0,.62-.02.76h-9.76c.3,2.19,1.97,3.65,4.14,3.65,1.55,0,2.88-.74,3.6-2,.17.05.47.12.84.2l.81.17c-.91,2.05-2.91,3.25-5.25,3.25-1.65,0-3.06-.57-4.16-1.68Zm8.13-5.13c-.32-2.19-1.87-3.57-3.97-3.57s-3.82,1.4-4.14,3.57h8.11Z"></path><path class="cls-1" d="m71.69,8.03c-.52-.27-1.08-.39-1.68-.39-1.11,0-1.92.57-2.49,1.68-.54,1.11-.81,2.49-.81,4.14v4.29h-1.65V6.23h1.65v2.61c.54-1.9,1.65-2.86,3.3-2.86.76,0,1.65.25,1.87.44l-.2,1.6Z"></path><path class="cls-1" d="m83.24,0v17.74h-1.65v-1.97c-.81,1.4-2.59,2.22-4.34,2.22s-3.08-.57-4.21-1.68c-1.11-1.11-1.68-2.56-1.68-4.36s.57-3.23,1.68-4.31c1.13-1.11,2.54-1.65,4.21-1.65,1.77,0,3.52.76,4.34,2.14V0h1.65Zm-9.02,15.11c.81.81,1.82,1.23,3.03,1.23s2.27-.39,3.08-1.16c.84-.79,1.26-1.87,1.26-3.23s-.44-2.39-1.33-3.15c-.86-.76-1.87-1.16-3.01-1.16-1.21,0-2.22.39-3.03,1.18-.81.79-1.21,1.82-1.21,3.13s.39,2.32,1.21,3.15Z"></path><path class="cls-1" d="m85.34,1.11c.49-.47,1.28-.47,1.77,0,.49.42.49,1.23,0,1.7-.49.42-1.28.42-1.77,0-.49-.47-.49-1.28,0-1.7Zm.05,16.63V6.23h1.63v11.51h-1.63Z"></path><path class="cls-1" d="m98.88,7.87l-1.49.86s.06.06.1.09c.86.79,1.28,1.82,1.28,3.13s-.42,2.37-1.28,3.18c-.84.81-1.87,1.23-3.1,1.23s-2.27-.42-3.13-1.23c-.84-.81-1.26-1.87-1.26-3.18s.42-2.34,1.26-3.13c.86-.81,1.9-1.21,3.13-1.21.63,0,1.21.1,1.74.31v-1.72c-.54-.14-1.12-.22-1.74-.22-1.7,0-3.13.54-4.29,1.65-1.16,1.11-1.72,2.54-1.72,4.31s.59,3.25,1.75,4.36c1.16,1.11,2.59,1.68,4.26,1.68s3.1-.57,4.26-1.68c1.16-1.11,1.75-2.56,1.75-4.36,0-1.65-.51-3-1.52-4.08Z"></path></g><polygon class="cls-1" points="99.45 7.03 97.54 8.13 96.56 8.7 96.56 5.36 99.45 7.03"></polygon></g><g><g><path class="cls-1" d="m5.11,16.02c-1.08,0-2.09-.42-2.86-1.18-1.57-1.57-1.57-4.14,0-5.71.76-.76,1.78-1.18,2.86-1.18.56,0,1.12.12,1.64.34,0-.01-.02-.03-.02-.04-.11-.2-.21-.41-.3-.62-.04-.09-.07-.18-.1-.27-.02-.07-.05-.14-.08-.23v-.02s0,0,0,0c-.01-.04-.02-.08-.03-.11-.36-.08-.73-.12-1.1-.12-1.36,0-2.65.53-3.61,1.5-.96.97-1.5,2.25-1.5,3.61s.53,2.65,1.5,3.61c.95.95,2.22,1.48,3.56,1.5l1.25-1.25c-.39.12-.79.18-1.2.18Z"></path><path class="cls-1" d="m23.15,11.99c0-1.36-.53-2.65-1.5-3.61-.96-.96-2.25-1.5-3.61-1.5-.37,0-.75.04-1.11.12h-.02c-.1.03-.2.05-.28.08-.02,0-.03,0-.05.01-.02,0-.04.01-.06.02v.02s-.13.04-.13.04c-.1.03-.2.07-.29.11-.2.08-.39.17-.56.27h-.02s-.05.04-.07.06l-.39.24c-.17.12-.33.26-.49.4-.05.04-.09.09-.14.13l-2.44,2.44c-.12.12-.17.29-.15.45,0,.07.03.14.07.2l.19.19c.06.04.13.06.2.07.16.02.33-.03.45-.15l2.44-2.44c.76-.76,1.77-1.18,2.86-1.18,1.25,0,2.42.57,3.2,1.57,1.11,1.42,1.12,3.49.02,4.92-.78,1.01-1.95,1.59-3.22,1.59-.56,0-1.12-.12-1.63-.34,0,.01.02.03.02.04.11.2.21.4.3.62.04.09.07.18.1.27.03.09.06.18.08.26.01.04.02.07.03.11.36.08.72.12,1.09.12.47,0,.94-.06,1.39-.18.42-.11.82-.28,1.19-.51,1.58-.96,2.52-2.61,2.52-4.41Z"></path><path class="cls-1" d="m12,11.57s.07.06.11.08l-.19-.19s.05.07.08.11Z"></path><path class="cls-1" d="m15.53,7.56h.02c.17-.11.36-.2.56-.29.1-.04.2-.08.29-.11l.12-.04v-.02s-.11.04-.17.06c-.08.03-.16.06-.25.09-.2.08-.39.17-.56.27-.17.09-.33.2-.48.31l.39-.24s.05-.03.07-.04Z"></path><path class="cls-1" d="m15.19,1.91c-.97-.96-2.25-1.5-3.61-1.5s-2.65.53-3.61,1.5c-1.25,1.25-1.76,3.04-1.36,4.77.02.09.05.19.08.3h0c.02.09.05.16.07.23.03.08.06.16.09.25.08.19.17.38.27.57.23.4.51.78.84,1.11.08.08.16.17.23.25l2.81,2.81.36.36,2.8,2.8h0c.08.08.17.16.25.24.08.08.16.17.23.25.65.77.99,1.75.95,2.76-.04,1.02-.46,1.98-1.18,2.7-.76.76-1.78,1.18-2.86,1.18s-2.09-.42-2.86-1.18c-1.06-1.06-1.44-2.63-1-4.05l-1.25,1.25c.01,1.34.54,2.61,1.5,3.56.96.96,2.25,1.5,3.61,1.5s2.65-.53,3.61-1.5c.96-.97,1.5-2.25,1.5-3.61,0-.37-.04-.74-.12-1.1-.03-.12-.06-.24-.09-.35-.02-.08-.05-.15-.08-.24-.03-.08-.06-.16-.09-.25-.08-.19-.17-.38-.27-.57-.16-.29-.36-.56-.58-.82-.09-.1-.27-.27-.27-.28l-6.2-6.2c-.08-.1-.17-.19-.26-.28-.76-.76-1.18-1.78-1.18-2.86s.42-2.09,1.18-2.86c.76-.76,1.78-1.18,2.86-1.18s2.09.42,2.86,1.18c1.19,1.18,1.51,2.97.84,4.49.01,0,.03-.02.04-.02.19-.11.4-.21.61-.3.09-.04.18-.07.27-.1.07-.03.14-.05.2-.07h.01s.01,0,.02,0c0,0,.02,0,.03,0,.02,0,.04-.01.05-.02.02,0,.04-.01.06-.02.37-1.71-.14-3.47-1.38-4.71Z"></path><path class="cls-1" d="m11.07,12.5c-.1-.1-.24-.16-.38-.16s-.27.05-.38.16l-2.38,2.38-.02.02-2.2,2.2c-.21.21-.21.55,0,.76.1.1.24.16.38.16s.27-.05.38-.16l4.6-4.6c.21-.21.21-.55,0-.76Zm-2.47,3.01s0,0,0,0c0,0,0,0,0,0,0,0,0,0,0,0,0,0,0,0,.01,0l-.02.02Z"></path><polygon class="cls-1" points="8.6 15.5 8.6 15.5 8.6 15.51 8.62 15.48 8.61 15.49 8.6 15.5"></polygon></g><path class="cls-1" d="m11.07,12.5c-.1-.1-.24-.16-.38-.16s-.27.05-.38.16l-2.38,2.38-.02.02L.89,21.92c-.21.21-.21.55,0,.76.1.1.24.16.38.16s.27-.05.38-.16l9.42-9.42c.21-.21.21-.55,0-.76Zm-2.47,3.01s0,0,0,0c0,0,0,0,0,0,0,0,0,0,0,0,0,0,0,0,.01,0l-.02.02Z"></path></g></g></g></g></svg>